<svg xmlns="http://www.w3.org/2000/svg" version="1.1" viewBox="0 0 1600 1600" width="500"
    height="500">
    <rect width="100%" height="100%" fill="#0E9F6E" />
    <path
        transform="translate(746,237)"
        d="m0 0h2l8 39 12 49 11 41 13 41 11 31 11 34 2 12 1 10 1 34 1 162v40l-1 30-1 10 3-3 10-31 8-26 10-40 2-9 3-1 4 15 6 25 10 34 14 43 17 48 13 36 5 16 3 17 1 9 1 75v30l5-1 17-1 7-1 1-1 1-7 1-123 1-55 4-24 6-25 11-44 4-20 5-39 5-47 5-37 4-23 2-4 2 2 11 53 12 50 7 26 15 49 12 34 12 29 13 31 14 36 6 19 4 19 1 10v130l4-5 13-30 11-30 10-31 7-27 5-22 6-38 2-4 16-4 19-5 27-9 18-8 10-5h2l-1 21-5 46-6 40-9 45-9 35-12 39-11 31-13 32-14 29-11 21-15 24-14 20-9 12-11 14-10 11-7 8-9 10-13 13-8 7-15 13-17 13-18 12-17 10-19 10-27 11-28 9-36 8-30 5-27 3-28 2h-38l-35-3-29-5-24-6-29-9-21-8-26-12-23-12-22-14-14-10-13-10-14-12-12-11-8-7-14-15-9-11-12-14-14-19-8-12-13-21-14-25-8-15-14-31-15-36-10-27-15-47-10-38-7-33-5-30-5-48-1-18 5 1 11 9 10 8 12 11 15 15 7 6 7 8 13 14 7 8 11 12 22 22 7 8 9 10 13 19 9 12 8 10 1 3h3v-157l4-26 4-19 7-30 12-50 2-4 2 2 11 35 14 40 19 49 8 19 11 25 1 5h3l-1-2v-164l3-20 7-25 8-25 9-32 8-32 9-43 11-66 2-10 1-10h3l13 37 8 21 6 17 2 1 1-14 6-40 13-65 9-42 9-45 10-57 6-30z"
        fill="white" />
    <path transform="translate(1006,556)"
        d="m0 0 2 2 11 53 12 50 7 26 15 49 12 34 12 29 13 31 14 36 6 19 4 19 1 10v130l4-5 13-30 11-30 10-31 7-27 5-22 6-38 2-4 16-4 19-5 27-9 18-8 10-5h2l-1 21-5 46-6 40-9 45-9 35-12 39-11 31-13 32-14 29-11 21-15 24-14 20-9 12-11 14-10 11-7 8-9 10-13 13-8 7-15 13-17 13-18 12-17 10-19 10-27 11-15 5h-5l-3-4v-2l-13 1-4 1h-10l-33-4-21-4-27-9-20-8-5-3-10-4-16-9-17-12-9-8-9-5v-2l-4-1v-2l-6-2-9-7-14-12v-2l5 1 2 1v2l5 2 10 7 9 5-1-3h2v-5h2l1-7h2v-8l1-12 2-92 1-175 1-56 1-15h2l-1-5h2l3 12 1 7 1 3 1 21 3 15 2 14 1 1v12l1 5 2 16 1 7-1 9 2 1v10l1 1v7l1 2 1 15 2 18 3 10 2 17 3 9 2 7v6l2 2 1 9 2 5 2 1 2 9 2 5 2 10 2 9 1 1 4 34 1 3 1-99 1-95 1-179 1-10 2 4 2 6 2 2 3 1 5-3 9 1 11 2 1-3 9 2 1-3 8 1 4-3 4-4 3-2h3v-3l4-1v-2l6-1-1-10h2l1-2h2l7 18 13 37 4 15 3 21 1 75v30l5-1 17-1 7-1 1-1 1-7 1-123 1-55 4-24 6-25 11-44 4-20 5-39 5-47 5-37 4-23z"
        fill="white" />
    <path transform="translate(746,237)"
        d="m0 0h2l8 39 12 49 11 41 13 41 11 31 11 34 2 12 1 10 1 34 1 162v40l-1 30-1 10 3-3 10-31 8-26 10-40 2-9 3-1 4 15 6 25 10 34 14 43 12 34-2 1-1 3-2-1 1 3v7l-6 1v2l-4 1v3l-5 2-5 6-4 2-8-1-1 2 2 1-11-2-1 2-18-1-2-1-6 3v-2l-3 1-3-4-1-5-1 6-1 179-1 113-1 83-2-2-2-12-1-12-1-6v-7l-2-1-3-12-2-11-2-7-2-3-2-4-1-5-1-6-2-1v-8l-3-7-3-14-2-16-2-7-2-17-1-14-1-3v-6l-1-2v-9l-1-1v-10l-2-13-1-13-1-1v-12l-2-5-2-13-2-12-1-21-4-20v-2h-2l1 5h-2l-1 71-1 109-1 2-1 16-3 2-4-7-9-3-4 3-9 4-11-1-5 1-5-5h-4l-4-1-1-3-1 4-1 23-1 8h-1l-1-331-1-93-2-50-1-3h-11l-7-2-5-3-7-1-2 9-1 15v37l-3 21-6 12-4 2-12 2-9 1-5-2h-3l-3 7-3 10h-2l-1 65h-1v-104l3-20 7-25 8-25 9-32 8-32 9-43 11-66 2-10 1-10h3l13 37 8 21 6 17 2 1 1-14 6-40 13-65 9-42 9-45 10-57 6-30z"
        fill="white" />
</svg>
